# xmcd
#
# Track frame offsets:
#	150
#	14305
#	27215
#	37032
#	46805
#	59170
#	70197
#	82327
#	92835
#	102232
#	111995
#	124220
#
# Disc length: 1784 seconds
# Revision: 6
# Processed by: cddbd v1.5.2PL0 Copyright (c) Steve Scherf et al.
# Submitted via: dBpowerAMP V12.0
#
DISCID=a906f60c
DTITLE=Johnny Cash - Complete Columbia Album Collection, Disc 36 [Ragged Old Flag]
DYEAR=1974
DGENRE=Country
TTITLE0=Ragged Old Flag
TTITLE1=Don't Go Near the Water
TTITLE2=All I Do is Drive
TTITLE3=Southern Comfort
TTITLE4=King of the Hill
TTITLE5=Pie in the Sky
TTITLE6=Lonesome to the Bone
TTITLE7=While I've Got it on My Mind
TTITLE8=Good Morning, Friend
TTITLE9=I'm a Worried Man
TTITLE10=Please Don't Let Me Out
TTITLE11=What on Earth Will You Do (For Heaven's Sake)
EXTD=
EXTT0=
EXTT1=
EXTT2=
EXTT3=
EXTT4=
EXTT5=
EXTT6=
EXTT7=
EXTT8=
EXTT9=
EXTT10=
EXTT11=
PLAYORDER=
